<svg xmlns="http://www.w3.org/2000/svg" viewBox="0 0 72 72"><title>ballon-cake</title><path d="M34.85 21.54c0-7.68-6-13.92-13.27-13.92S8.31 13.86 8.31 21.54s6 13.92 13.27 13.92a4.91 4.91 0 0 0 2.17 2 5.23 5.23 0 0 0 .69.31 5.28 5.28 0 0 1-.26 2.85 11.07 11.07 0 0 1-1.25 2.28c-1.75 2.71-4.15 6.42-.56 12.26a.75.75 0 1 0 1.28-.78c-3.09-5-1.16-8 .55-10.66A12 12 0 0 0 25.6 41a6.73 6.73 0 0 0 .3-3.65 5 5 0 0 0 1.34-3.28 14 14 0 0 0 7.61-12.53zM24.9 36.3a6 6 0 0 1-1.58-1 12.64 12.64 0 0 0 2.33-.54 3.58 3.58 0 0 1-.75 1.54zM21.58 34c-6.49 0-11.77-5.61-11.77-12.46S15.09 9.12 21.58 9.12s11.77 5.57 11.77 12.42S28.07 34 21.58 34z"/><path d="M17.33 13.55a10.27 10.27 0 0 0-.48 16.17.75.75 0 1 0 .94-1.17 8.77 8.77 0 0 1 .41-13.78.75.75 0 0 0-.87-1.22zM44.78 33.39a3.47 3.47 0 0 0 2.69-1.12A2.77 2.77 0 0 0 48 30c-.29-1.66-2.44-4.46-2.68-4.78l-.59-.76-.59.76c-.24.31-2.39 3.12-2.68 4.78a2.8 2.8 0 0 0 .55 2.35 3.35 3.35 0 0 0 2.77 1.04zM43 30.23a11.53 11.53 0 0 1 1.79-3.31 11.48 11.48 0 0 1 1.79 3.31 1.27 1.27 0 0 1-.25 1.08 2 2 0 0 1-1.55.58 2 2 0 0 1-1.57-.53 1.34 1.34 0 0 1-.21-1.13zM62.81 50.14L49.43 45v-8.2c0-3.12-9.39-3.12-9.39 0v5l-1-.42a.75.75 0 0 0-.6 0c-.26.12-6.38 3-7.3 9.13a.78.78 0 0 0 0 .11v13a.75.75 0 0 0 .75.75h30.65a.75.75 0 0 0 .75-.75V50.84a.75.75 0 0 0-.48-.7zM32.6 51.7h29.19v5.71a4.79 4.79 0 0 1-1.79-.78 6.08 6.08 0 0 0-3.62-1.13 6 6 0 0 0-3.56 1.13 4.22 4.22 0 0 1-5.08 0 6.28 6.28 0 0 0-7.18 0 4.22 4.22 0 0 1-5.08 0 6.18 6.18 0 0 0-2.87-1.09zm12.13-15.82c2 0 3.12.64 3.2.87v8.7c-.09.25-1.19.88-3.2.88s-3.12-.64-3.2-.87v-8.7c.08-.24 1.18-.88 3.2-.88zm-6 6.93l1.27.51v2.14c0 1.56 2.36 2.37 4.7 2.37 1.79 0 3.6-.49 4.34-1.42l9.76 3.78H32.69c.9-4.3 4.96-6.78 6.07-7.38zm-6.16 20V57a4.85 4.85 0 0 1 2.08.85 5.69 5.69 0 0 0 6.67 0 4.63 4.63 0 0 1 2.83-.9 4.57 4.57 0 0 1 2.76.9 5.69 5.69 0 0 0 6.67 0 4.62 4.62 0 0 1 2.83-.9 4.57 4.57 0 0 1 2.76.9 6 6 0 0 0 2.58 1v3.85z"/></svg>