<svg xmlns="http://www.w3.org/2000/svg" viewBox="0 0 72 72"><title>globe-heart</title><path d="M63.85 43a7.78 7.78 0 0 0-5.34-3.43 24.89 24.89 0 0 0 .38-4.32 24.54 24.54 0 0 0-3.14-12 .72.72 0 0 0-.07-.12A24.71 24.71 0 0 0 34.19 10.5 24.71 24.71 0 0 0 12.7 23.06a.72.72 0 0 0-.07.12A24.68 24.68 0 0 0 34 59.89a.75.75 0 0 0 .22 0 .75.75 0 0 0 .22 0 24.43 24.43 0 0 0 10.27-2.34l5.9 5.9a.75.75 0 0 0 1.06 0L62.2 52.9a9.08 9.08 0 0 0 1.65-9.9zM11 35.95h11a32 32 0 0 0 1.86 10.15H13.72A23 23 0 0 1 11 35.95zm2.76-11.76h10.15A32.05 32.05 0 0 0 22 34.45H11a23 23 0 0 1 2.77-10.26zm43.6 10.26h-11a32 32 0 0 0-1.87-10.26h10.12a23 23 0 0 1 2.76 10.26zm-12.53 0h-9.9V24.19h7.89a30.19 30.19 0 0 1 2.02 10.26zm-9.9-11.76v-9.88a29.37 29.37 0 0 1 7.27 9.88zm-1.5-9.88v9.88h-7.24a29.61 29.61 0 0 1 7.25-9.88zm0 11.38v10.26h-9.88a30.05 30.05 0 0 1 2-10.26zm-9.88 11.76h9.89V46.1h-7.93a30.15 30.15 0 0 1-1.96-10.15zm9.89 11.65v10a29.6 29.6 0 0 1-7.31-10zm1.5 10v-10h2.7a9 9 0 0 0 2 4.78 28.49 28.49 0 0 1-4.7 5.24zM38.39 43a7.37 7.37 0 0 0-.79 3.15h-2.66v-10.2h9.89a31.94 31.94 0 0 1-.27 3.51 6.48 6.48 0 0 0-.83 0A7.43 7.43 0 0 0 38.39 43zm7.95-7h11a23.32 23.32 0 0 1-.34 3.5 9.42 9.42 0 0 0-5.88 3.43A10.73 10.73 0 0 0 46 39.67a33.52 33.52 0 0 0 .33-3.72zm7.38-13.26h-9.83a30.37 30.37 0 0 0-7.45-10.58 23.22 23.22 0 0 1 17.27 10.53zM31.95 12.11a30.37 30.37 0 0 0-7.45 10.58h-9.83a23.22 23.22 0 0 1 17.28-10.58zM14.6 47.6h9.84a30.39 30.39 0 0 0 7.47 10.68A23.22 23.22 0 0 1 14.6 47.6zm21.85 10.68a30 30 0 0 0 4.18-4.78l2.92 2.92a22.83 22.83 0 0 1-7.1 1.86zm24.7-6.45l-10 10-10-10c-1.79-1.73-2.76-5.58-1.37-8.15A6 6 0 0 1 43.89 41h.52c2 0 4.06 1.21 6.14 3.6a.69.69 0 0 0 .58.26.75.75 0 0 0 .57-.27C53.82 42 56 40.77 58.16 41a6.18 6.18 0 0 1 4.37 2.7c1.39 2.54.47 6.39-1.38 8.13z"/></svg>