<svg id="Outlined" xmlns="http://www.w3.org/2000/svg" viewBox="0 0 72 72">title>graduation-cap</title><path class="cls-1" d="M66.74 26.72a.73.73 0 0 0 0-.15v-.05a.7.7 0 0 0 0-.08.73.73 0 0 0-.07-.13l-.1-.11-.1-.09-.2-.11h-.07l-30-8.39a.75.75 0 0 0-.4 0L5.8 26h-.07l-.15.08-.1.09-.1.11a.73.73 0 0 0-.07.13.71.71 0 0 0 0 .08v.05a1 1 0 0 0 0 .3v.05a.72.72 0 0 0 0 .08.73.73 0 0 0 .07.13l.09.11.1.09.14.07h.07l9.85 2.75V46a.75.75 0 0 0 .75.75c9.75 0 19 7.93 19.12 8a.75.75 0 0 0 1 0c.09-.08 9.36-8 19.12-8a.75.75 0 0 0 .75-.75V30.2l2.83-.79v18.47c-.64.73-2.21 3-2.21 7.8a.75.75 0 0 0 .75.75h4.41a.75.75 0 0 0 .75-.75c0-4.79-1.57-7.07-2.21-7.8V29l5.51-1.54a.75.75 0 0 0 .24-.12.73.73 0 0 0 .13-.16v-.09a.72.72 0 0 0 0-.1v-.05a.73.73 0 0 0 .17-.22zM58.5 54.93a11 11 0 0 1 1.44-5.55 11 11 0 0 1 1.44 5.55zM36 19.12l27.21 7.61-3.35.94L36.05 26a.75.75 0 1 0-.11 1.5l19.62 1.39L36 34.33 8.79 26.72zm18.86 26.12C46 45.57 38 51.54 36 53.19c-2-1.65-10-7.62-18.86-8V30.62l18.66 5.21h.4l18.65-5.21z"/></svg>