<svg xmlns="http://www.w3.org/2000/svg" viewBox="0 0 72 72"><title>heart-hand</title><path d="M61.43 28.65h-5.1V15.92h5.09a.75.75 0 1 0 0-1.5h-9.13a.75.75 0 0 0-.75.75v.2h-2.23l-9.87-5a.75.75 0 0 0-.72 0L19.63 21.76a3 3 0 0 0-1.18 3.8 2.56 2.56 0 0 0 2.42 1.35 4.72 4.72 0 0 0 .74-.06c1.43-.22 13.53-2.47 16-2.93 2 2.09 4.89 5 5.06 5.14a.75.75 0 0 0 .53.22h8.34v.11a.75.75 0 0 0 .75.75h9.13a.75.75 0 0 0 0-1.5zm-17.91-.86c-.75-.75-3.26-3.27-5-5.06a.75.75 0 0 0-.23-.24c-.6-.62-1.07-1.14-1.31-1.42-.82-1-1-2.18-.36-2.75a2 2 0 0 1 2.77.28c1 .93 4 4.05 4 4.08a.75.75 0 0 0 1.09-1c-.12-.13-3-3.19-4.07-4.15a3.53 3.53 0 0 0-4.8-.29c-1.23 1.13-1.14 3.2.22 4.82l.54.6c-3.72.69-13.75 2.54-15 2.74s-1.5-.33-1.61-.52a1.55 1.55 0 0 1 .63-1.79l18.74-11.17 9.67 4.87a.75.75 0 0 0 .34.08h2.42v10.92zM53 15.92h1.79v12.73H53zM50.39 45.15c-1.43.23-13.53 2.47-16 2.93-2-2.09-4.9-5-5.06-5.14a.75.75 0 0 0-.53-.22h-8.34v-.12a.75.75 0 0 0-.75-.75h-9.14a.75.75 0 0 0 0 1.5h5.09v12.73h-5.09a.75.75 0 0 0 0 1.5h9.13a.75.75 0 0 0 .75-.75v-.2h2.24l9.87 5a.75.75 0 0 0 .72 0l19.09-11.39a3 3 0 0 0 1.18-3.8 2.76 2.76 0 0 0-3.16-1.29zM19 56.08h-1.83V43.35H19zm32.6-7.13L32.88 60.08l-9.67-4.87a.75.75 0 0 0-.34-.08h-2.41V44.21h8c.75.75 3.26 3.27 5 5.06a.74.74 0 0 0 .24.25c.59.62 1.07 1.13 1.31 1.42.82 1 1 2.18.36 2.75a2 2 0 0 1-2.77-.28c-1-.93-4-4.05-4-4.08a.75.75 0 0 0-1.09 1c.12.13 3 3.19 4.07 4.14a3.94 3.94 0 0 0 2.67 1.1 3.13 3.13 0 0 0 2.13-.81c1.23-1.13 1.14-3.2-.22-4.82l-.54-.6c3.72-.69 13.75-2.54 15-2.74s1.5.33 1.61.52a1.55 1.55 0 0 1-.63 1.83z"/><path d="M35.23 43.24a.75.75 0 0 0 1.06 0l5.33-5.33a4.92 4.92 0 0 0 .9-5.47 4.25 4.25 0 0 0-3.09-1.94 4.54 4.54 0 0 0-3.68 1.58A4.67 4.67 0 0 0 32 30.49a4.14 4.14 0 0 0-3 1.94 4.91 4.91 0 0 0 .89 5.46zm-4.91-10.09A2.68 2.68 0 0 1 32.15 32h.22a4 4 0 0 1 2.82 1.69.82.82 0 0 0 .58.26.75.75 0 0 0 .57-.27c1-1.2 2-1.76 2.95-1.67a2.81 2.81 0 0 1 1.92 1.17 3.47 3.47 0 0 1-.63 3.69l-4.81 4.81-4.82-4.82a3.46 3.46 0 0 1-.63-3.71zM21.76 38a.75.75 0 0 0-.65.84 14.48 14.48 0 0 0 .29 1.55.75.75 0 0 0 .73.57h.18a.75.75 0 0 0 .55-.91 12.83 12.83 0 0 1-.26-1.39.75.75 0 0 0-.84-.66zM22.79 31.62a.75.75 0 0 0-1 .45 14.49 14.49 0 0 0-.76 3.36.75.75 0 0 0 .67.82h.08a.75.75 0 0 0 .75-.67 13 13 0 0 1 .68-3 .75.75 0 0 0-.42-.96zM23.58 30a.75.75 0 0 0 1-.22 12.94 12.94 0 0 1 .84-1.14.75.75 0 0 0-1.16-1 14.58 14.58 0 0 0-.89 1.36.75.75 0 0 0 .21 1zM48.72 30.91a.75.75 0 1 0-1.36.63 13.12 13.12 0 0 1 .52 1.32.75.75 0 1 0 1.42-.47 14.32 14.32 0 0 0-.58-1.48zM49 39.74h.11a.75.75 0 0 0 .74-.64A14.74 14.74 0 0 0 50 37q0-.63-.05-1.26a.76.76 0 0 0-.81-.68.75.75 0 0 0-.68.81V37a13.19 13.19 0 0 1-.14 1.92.75.75 0 0 0 .68.82zM47.31 44.13a.75.75 0 0 0 1-.31 14.37 14.37 0 0 0 .69-1.43.75.75 0 0 0-1.39-.56 13 13 0 0 1-.6 1.28.75.75 0 0 0 .3 1.02z"/></svg>