<svg xmlns="http://www.w3.org/2000/svg" viewBox="0 0 72 72"><title>holidays</title><path d="M68.1 54.78L49.5 4.41a.75.75 0 0 0-1.41 0L32.25 47.32l-2.75 7.46a.75.75 0 0 0 .7 1h15v8.63a.75.75 0 0 0 .75.75h6.46a.75.75 0 0 0 .75-.75v-8.62h14.23a.75.75 0 0 0 .7-1zM41.37 27a26.72 26.72 0 0 0 17.14 8.4 26.81 26.81 0 0 1-5.3 5.05A35.11 35.11 0 0 1 34 46.8zm1.17-1c6.7-1.26 9.85-4.08 11.2-5.78l5 13.65A25.74 25.74 0 0 1 42.54 26zM48.8 6.83l4.3 11.66c-.57 1-3.17 4.57-10.83 6zm2.88 56.83h-5v-7.87h5zm-20.4-9.37l2.2-6c15.89-.58 23.76-8.85 26.2-12l6.64 18z"/><path d="M48.33 19a1.75 1.75 0 1 0-1.75-1.75A1.75 1.75 0 0 0 48.33 19zm0-2.5a.75.75 0 1 1-.75.75.75.75 0 0 1 .75-.73zM52.94 26.64a1.75 1.75 0 1 0 1.75 1.75 1.75 1.75 0 0 0-1.75-1.75zm0 2.5a.75.75 0 1 1 .75-.75.75.75 0 0 1-.75.75zM48.32 39a1.75 1.75 0 1 0-1.75-1.75A1.75 1.75 0 0 0 48.32 39zm0-2.5a.75.75 0 1 1-.75.75.75.75 0 0 1 .75-.79zM39.33 43.43a1.75 1.75 0 1 0-1.75-1.75 1.75 1.75 0 0 0 1.75 1.75zm0-2.5a.75.75 0 1 1-.75.75.75.75 0 0 1 .75-.75zM48.33 48.37a1.75 1.75 0 1 0 1.75 1.75 1.75 1.75 0 0 0-1.75-1.75zm0 2.5a.75.75 0 1 1 .75-.75.75.75 0 0 1-.75.75zM25.88 53.48l-2.12-13.55a.75.75 0 0 0-.86-.62l-6.39 1-.9-5.77a2.93 2.93 0 0 0-5.78.9l.9 5.77-6.39 1a.75.75 0 0 0-.63.86l2.13 13.54a1.24 1.24 0 0 0 .74.94l9.9 6.91a1.23 1.23 0 0 0 .7.22h.19a1.24 1.24 0 0 0 .79-.47l7.32-9.59a1.24 1.24 0 0 0 .4-1.14zm-14.3-19.33a1.42 1.42 0 0 1 .93-.57h.22a1.43 1.43 0 0 1 1.41 1.21l.9 5.77-2.82.44-.9-5.77a1.41 1.41 0 0 1 .26-1.08zm-6.26 9.42l17.08-2.66L24.28 53 7.2 55.64zm11.8 19.51L8.37 57l15.22-2.4z"/></svg>