<svg xmlns="http://www.w3.org/2000/svg" viewBox="0 0 72 72"><title>love-birds</title><path d="M42.33 21.58a5.28 5.28 0 0 0 1-5.88A4.55 4.55 0 0 0 40 13.62a4.9 4.9 0 0 0-4 1.75 5.05 5.05 0 0 0-4.09-1.74 4.43 4.43 0 0 0-3.2 2.08 5.28 5.28 0 0 0 1 5.87l5.81 5.81a.75.75 0 0 0 1.06 0zM30.71 20.5a3.84 3.84 0 0 1-.71-4.08 3 3 0 0 1 2-1.31h.25A4.41 4.41 0 0 1 35.43 17a.76.76 0 0 0 .58.26.75.75 0 0 0 .57-.27c1.09-1.32 2.2-1.94 3.26-1.84A3.08 3.08 0 0 1 42 16.42a3.85 3.85 0 0 1-.7 4.09L36 25.79zM34.08 36c-.88-.67-1.74-1.32-2.57-2a1.11 1.11 0 0 1-.24-.41c-.08-.17-.14-.35-.2-.52a5.29 5.29 0 0 0-.41-1 7.59 7.59 0 0 0-6.87-4 7.6 7.6 0 0 0-6.9 4c-.17.3-.34.6-.5.9l-.31.56a8.87 8.87 0 0 1-13.65 2.26l-.33-.28a.75.75 0 0 0-1.23.7A15.07 15.07 0 0 0 2.06 40a15.67 15.67 0 0 0 9 8.21 16.07 16.07 0 0 0 5.4.94h.44l2.3 5.33a.75.75 0 0 0 1.38-.6L18.51 49a16.15 16.15 0 0 0 2.92-.66l2.27 5.25a.75.75 0 0 0 1.38-.6l-2.24-5.19c.25-.11.5-.19.74-.31a13.09 13.09 0 0 0 7.27-7.92.52.52 0 0 1 .19-.15c.78-.33 1.57-.64 2.36-.95l1-.38.3-.13.14-.06a.75.75 0 0 0 .15-1.28zm-1.23 1.11c-.8.31-1.61.63-2.39 1a1.84 1.84 0 0 0-1 1 11.69 11.69 0 0 1-6.51 7.07 14.57 14.57 0 0 1-11.32.64 14.18 14.18 0 0 1-8.17-7.42 13.66 13.66 0 0 1-.6-1.4 10.37 10.37 0 0 0 14.46-3.71l.32-.58c.16-.29.31-.57.48-.85a6.11 6.11 0 0 1 5.61-3.22 6.17 6.17 0 0 1 5.58 3.25 4.07 4.07 0 0 1 .29.7c.08.22.15.44.25.64a2.47 2.47 0 0 0 .68 1c.79.63 1.6 1.24 2.42 1.86z"/><path d="M21.22 42.64a10.75 10.75 0 0 1-10.69-.74.75.75 0 0 0-.84 1.24 12 12 0 0 0 6.8 2.09A12.25 12.25 0 0 0 21.87 44a.75.75 0 1 0-.65-1.35z"/><circle cx="25.85" cy="34.12" r=".97"/><path d="M70.29 35.42a.75.75 0 0 0-.86.08l-.33.28a8.87 8.87 0 0 1-13.58-2.28l-.32-.5c-.16-.3-.33-.6-.51-.9a7.6 7.6 0 0 0-6.9-3.95 7.59 7.59 0 0 0-6.87 4 5.29 5.29 0 0 0-.41 1c-.06.18-.12.35-.2.53A1.12 1.12 0 0 1 40 34c-.85.67-1.71 1.32-2.59 2l-.86.65a.75.75 0 0 0 .15 1.28l.13.06.29.12 1 .38c.79.31 1.58.61 2.36.95a.9.9 0 0 1 .17.12 13.12 13.12 0 0 0 7.29 8c.24.12.49.2.74.31L46.46 53a.75.75 0 0 0 1.38.6l2.27-5.25A16.15 16.15 0 0 0 53 49l-2.09 4.85a.75.75 0 0 0 1.38.6l2.3-5.33h.44a16.07 16.07 0 0 0 5.4-.94 15.67 15.67 0 0 0 9-8.21 15 15 0 0 0 1.18-3.79.75.75 0 0 0-.32-.76zm-2.18 3.94a14.18 14.18 0 0 1-8.17 7.42 14.57 14.57 0 0 1-11.32-.64 11.69 11.69 0 0 1-6.51-7.06 1.83 1.83 0 0 0-1-1c-.79-.34-1.6-.65-2.4-1l-.17-.08c.82-.62 1.63-1.24 2.43-1.87a2.46 2.46 0 0 0 .67-1c.1-.21.18-.43.25-.65a4.08 4.08 0 0 1 .29-.69 6.17 6.17 0 0 1 5.59-3.25 6.11 6.11 0 0 1 5.61 3.21c.17.28.32.57.48.85l.32.58A10.37 10.37 0 0 0 68.67 38a13.53 13.53 0 0 1-.56 1.37z"/><path d="M61 41.91a10.75 10.75 0 0 1-10.69.74.75.75 0 1 0-.65 1.35 12.25 12.25 0 0 0 5.39 1.25 12 12 0 0 0 6.8-2.09.75.75 0 0 0-.85-1.25z"/><circle cx="45.68" cy="34.12" r=".97"/></svg>