<svg xmlns="http://www.w3.org/2000/svg" viewBox="0 0 72 72"><title>wine-glasses</title><path d="M59.44 57.9a.75.75 0 0 0-.92-.53l-5 1.33-4-15c4.11-2.1 3.23-11.88 2-17.59-.11-.48-.22-1-.34-1.44a73.11 73.11 0 0 0-3.72-10.94l-.26-.58-12.3 3.28.06.63s.11 1.14.38 2.87l-11.5-3.05-.26.58a73 73 0 0 0-3.72 10.94c-.12.47-.23.95-.33 1.43-1.25 5.72-2.14 15.49 2 17.59l-4 15-5-1.33a.75.75 0 0 0-.38 1.45l11.43 3h.19a.75.75 0 0 0 .23-1.41l-5-1.33 4-15h.18c4.58 0 8.59-8.79 10.32-14.3a70.94 70.94 0 0 0 2.38-10.81 65.07 65.07 0 0 0 1.75 7.09c1.73 5.52 5.74 14.3 10.32 14.3h.18l4 15-5 1.32a.75.75 0 0 0 .19 1.48h.19l11.43-3a.75.75 0 0 0 .5-.98zM23.15 46.35a2.17 2.17 0 0 1-.56-.07c-3.34-.89-2.91-9.42-1.78-15.19a8.76 8.76 0 0 0 6.43-.52 4.8 4.8 0 0 1 5.28.84c-.16.56-.32 1.12-.5 1.69-1.66 5.31-5.44 13.26-8.87 13.25zm9.79-16.53a6.35 6.35 0 0 0-6.28-.63c-2.88 1.21-4.75.75-5.53.42.07-.28.13-.57.2-.85a72.17 72.17 0 0 1 3.38-10.11l9.81 2.61a73.89 73.89 0 0 1-1.58 8.56zm13.4-14.88a72.11 72.11 0 0 1 3.38 10.11c.07.28.13.57.2.85-.79.33-2.65.79-5.53-.42a6.34 6.34 0 0 0-6.28.63 74.07 74.07 0 0 1-1.58-8.55zM39 29.38c-.18-.56-.34-1.13-.5-1.69a4.8 4.8 0 0 1 5.28-.84 8.76 8.76 0 0 0 6.43.52c1.12 5.77 1.56 14.29-1.78 15.19-3.55.95-7.66-7.56-9.43-13.18zM35 14.08h.13a.75.75 0 0 0 .61-.86l-1.13-6.9a.75.75 0 1 0-1.48.25l1.17 6.88a.75.75 0 0 0 .7.63z"/><path d="M32 15.09a.75.75 0 1 0 1.28-.78l-3.15-5.12a.75.75 0 0 0-1.28.78zM37.46 14.25a.75.75 0 0 0 .94-.49c.14-.46 1.26-5.4 1.39-6a.75.75 0 0 0-1.46-.33C37.85 9.56 37.06 13 37 13.31a.75.75 0 0 0 .46.94zM26.57 14.69L30.16 17a.75.75 0 0 0 .84-1.24l-3.59-2.33a.75.75 0 1 0-.82 1.26z"/></svg>