<svg width="384" height="240" viewBox="0 0 384 240" xmlns="http://www.w3.org/2000/svg"><title>Illustration - USA</title><g fill="none" fill-rule="evenodd"><path d="M18.85 32.609l.425-1.138c.775-2.04.917-3.773 1.041-5.301.1-1.223.193-2.286.582-3.4.815-2.33.653-4.265.527-5.673-.048-.605-.098-1.12-.045-1.476l.159-.995c.257-1.502.584-3.375-.216-5.225-.376-.871-.564-2.392-.229-2.974 1.32-.234 1.68-.008 2.492.56.873.607 2.07 1.442 3.941 1.547 3.98.244 4.774-1.94 5.358-3.184.348-.697.377-.74.404-.788.823.075 2.629.553 3.545.799 5.65 1.509 29.29 5.617 31.968 6.08 19.115 3.312 62.14 7.483 78.008 8.242 8.147.39 10.668.258 14.484.048 3.36-.183 7.962-.433 18.96-.379 12.45.056 17.413-1.754 19.864-2.637.496-.181 1.054-.379 1.114-.417.152.067.543.37 1.56 1.454 3.77 4.028 9.872 4.09 14.776 4.137 2.154.024 4.387.047 5.287.47 1.815.86 4.22.846 6.55.704l2.627-.178a24.342 24.342 0 0 1 1.418-.053c-.866.931-2.434 2.181-3.493 3.024-2.06 1.633-4.188 3.322-5.583 5.222-.802 1.083-1.903 2.564-1.223 4.128.605 1.4 2.055 1.573 2.915 1.68.869.105 1.762.213 2.55.929 1.28 1.16 2.644 1.707 4.06 1.622 2.3-.144 3.965-1.848 5.573-3.5l2.09-2.11c1.243-1.263 4.153-4.224 4.91-4.436 2.239 2.251 5.701 4.87 12.678 5.247 2.352.122 4.769-.01 6.902-.127 1.57-.084 3.625-.193 4.675-.078-.031.38-.132.7-.303.904-3.522.523-14.526 3.826-16.394 8.33-.97 2.342.016 3.942.61 4.894.602.973 1.039 1.675.03 4.074-2.863 6.804-1.241 18.629-.002 23.286 1.94 7.358 6.03 7.917 7.698 7.813a6.334 6.334 0 0 0 1.885-.417c4.159-1.627 5.091-8.505 2.838-21.01-.86-4.795-1.117-10.74 2.6-11.82 3.605-1.035 4.35-3.56 4.79-5.068.373-1.278.476-1.48 1.588-1.764 2.004-.121 4.08 5.666 5.077 8.45l.619 1.7c.86 2.27 2.162 3.365 3.872 3.264 1.056-.063 1.86-.605 2.514-1.04 1.455 1.273 3.38 5.643 1.88 9.668-1.677 4.486-1.793 7.735-.35 9.675 1.249 1.678 3.431 2.15 6.196 1.19 5.15-1.79 13.317-9.13 17.739-13.35 1.868-1.79 2.412-4.012 2.899-5.971.622-2.522 1.074-4.003 3.153-5.023 8.824-4.332 11.218-9.17 12.97-12.706.668-1.353 1.192-2.42 1.93-3.167 1.327-1.335 6.88-3.101 11.338-4.52 5.254-1.674 10.212-3.25 12.817-5.116 5.614-4.026 4.629-13.144 4.097-18.042-.351-3.266 3.904-5.497 6.305-6.665 1.309-.08 3.58 1.933 4.754 4.95 1.454 3.733 3.468 5.894 6.026 8.635.7.751 1.459 1.568 2.277 2.49.525.593 1.12 1.449.966 2.152-.21.939-1.631 2.076-3.806 3.042-2.522 1.12-3.438 2.91-4.252 4.487-.584 1.148-1.14 2.227-2.408 3.24-3.183 2.545-3.438 5.071-3.642 7.114-.063.653-.119 1.331-.316 2.055-.16.589-.414 1.11-.651 1.6-1.192 2.509-1.982 5.214 2.485 8.313 3.353 2.332 3.754 3.967 3.8 4.411.024.265 0 .594-.395 1.007-.815.846-4.479 2.555-7.421 3.926-3.657 1.704-7.798 3.645-10.58 5.57-4.009 2.8-2.976 7.147-2.219 10.323.607 2.57.92 4.192.055 5.127-3.12 3.343-3.003 7.616-2.905 11.05.036 1.358.075 2.634-.093 3.62-.118.682-.349 1.588-.62 2.655-1.288 5.094-3.439 13.614.113 20.314 2.555 4.81-1.387 9.27-6.01 13.798l-1.268 1.254c-2.845 2.9-6.995 8.755-10.336 13.46a326.87 326.87 0 0 1-2.67 3.726c-.793 1.09-2.079 2.15-3.561 3.38-3.724 3.084-8.356 6.919-9.538 14.59-1.423 9.246 2.801 18.436 6.882 27.318.593 1.296 1.19 2.577 1.756 3.86 2.052 4.597 4.172 7.689 5.879 10.175 2.06 3 3.547 5.174 4.105 8.59.902 5.593.03 9.3-2.615 11.013-.932.604-1.51.88-1.846 1.004a6.203 6.203 0 0 1-.117-.898c-.18-2.925-.766-3.759-2.582-4.938-.715-.462-1.693-1.099-3.216-2.585-1.888-1.848-2.77-3.165-3.552-4.325-.959-1.431-1.872-2.78-4.066-4.303-2.425-1.674-3.712-5.481-3.46-10.175.316-5.826-6.812-12.056-11.973-14.623-1.191-.587-2.27-.844-3.306-.783-2.094.127-3.37 1.528-4.296 2.54-.904.99-1.413 1.507-2.35 1.564-1.27.052-3.158-1.304-4.822-2.503-2.683-1.929-5.78-3.78-8.378-2.436-2.08 1.077-3.656 1.803-6.53 1.975-1.775.108-3.921-.015-6.566-.357-1.403-.183-2.693-.241-3.84-.172-3.97.24-5.674 1.935-6.4 3.316-.83 1.573-.753 3.536.202 5.113 1.1 1.837 2.175 5.275 2.303 6.797-.376.13-1.049.275-2.085.338-2.937.178-6.457-.423-9.418-1.598-5.11-2.034-6.469-2.126-9.596-1.653-.662.103-1.447.223-2.815.353-1.485.09-2.199-.223-3.285-.694-1.536-.659-3.433-1.488-7.352-1.248-6.085.51-11.06 5.538-15.453 9.96-2.057 2.082-4.007 4.05-5.635 5.155-7.04 4.782-9.789 10.438-8.396 17.3.964 4.76.72 5.926.78 5.943-8.935.539-14.782-10.434-19.49-19.254-.974-1.83-1.907-3.571-2.806-5.113-1.112-1.904-1.998-3.567-2.761-4.996-3.055-5.735-4.737-8.895-11.82-8.65-3.721.225-5.599 2.335-6.976 3.878-1.935 2.159-2.937 2.57-6.03 1.496-4.128-1.424-5.091-3.868-6.21-6.704-.906-2.3-1.938-4.912-4.72-6.704-2.757-1.778-5.866-5.375-8.134-7.991-2.79-3.226-3.84-4.438-5.418-4.34-.855.05-7.549.03-11.839.01l-1.798-.006-.64 3.655c-12.576-.838-16.156-2.703-20.638-5.032-2.365-1.229-5.041-2.613-9.248-4.03-9.566-3.216-12.227-6.464-13.364-7.851-.386-.473-.717-.879-.92-.927-1.086-1.597-2.166-1.701-11.522-1.136-6.867.416-7.038-.21-7.458-1.718-.219-.792-.497-1.78-1.087-2.893-2.265-4.239-5.706-8.983-15.475-14.952-6.716-4.096-6.665-5.378-6.582-7.498.024-.672.05-1.384-.016-2.177-.203-2.437-1.869-5.164-3.626-8.059-1.396-2.293-2.973-4.887-3.222-6.596-.547-3.821-3.474-17.414-6.242-21.053-2.054-2.703-1.642-6.862-1.364-8.534.35-2.15-.427-4.15-1.176-6.089-.472-1.223-.916-2.381-1.047-3.468-.2-1.756 1.978-8.878 3.028-12.298.646-2.11 1.171-3.844 1.334-4.65.411-2.023.285-3.237.193-4.124-.105-1-.153-1.463 1.861-4.127L18.85 32.61z" stroke="#1982C8" stroke-width="4.014" fill="#F2F8FE" stroke-linecap="round" stroke-linejoin="round"/><path d="M333.162 73.486s-4.942 13.576-12.53 33.482c-7.59 19.91-16.907 28.365-45.843 32.487-28.936 4.121-58.513-4.165-76.724-11.837-18.21-7.672-26.627-12.28-35.043-20.65s-6.627-22.334 2.296-25.905c8.92-3.572 20.657 6.861 20.657 6.861s1.53-15.152 14.537-14.438c13.007.715 14.325 18.672 12.023 34.25-3.607 24.408-19.93 31.533-41.608 32.673-21.678 1.14-38.352-9.431-60.488-17.587-22.136-8.155-26.013-8.284-38.458-7.22-12.446 1.065-24.488 11.412-24.488 11.412" stroke="#F23218" stroke-width="4.014" stroke-linecap="round" stroke-dasharray="8.028"/><path d="M335.48 59.045l-2.752-3.386a2.114 2.114 0 0 0-2.966-.312 2.096 2.096 0 0 0-.31 2.955l2.752 3.386-3.396 2.74a2.096 2.096 0 0 0-.31 2.955 2.114 2.114 0 0 0 2.965.312l3.395-2.74 2.752 3.386a2.114 2.114 0 0 0 2.966.312 2.096 2.096 0 0 0 .31-2.955l-2.752-3.386 3.396-2.74a2.096 2.096 0 0 0 .31-2.955 2.114 2.114 0 0 0-2.965-.312l-3.395 2.74zM36.72 127.756l-3.705-2.306a2.114 2.114 0 0 0-2.905.671 2.096 2.096 0 0 0 .668 2.895l3.705 2.306-2.32 3.696a2.096 2.096 0 0 0 .67 2.895 2.114 2.114 0 0 0 2.905-.67l2.318-3.697 3.705 2.306a2.114 2.114 0 0 0 2.905-.67 2.096 2.096 0 0 0-.668-2.896l-3.705-2.306 2.32-3.696a2.096 2.096 0 0 0-.67-2.895 2.114 2.114 0 0 0-2.905.67l-2.318 3.697z" fill="#F23218"/></g></svg>