<svg width="196" height="186" viewBox="0 0 196 186" xmlns="http://www.w3.org/2000/svg" xmlns:xlink="http://www.w3.org/1999/xlink"><title>illustration-build</title><defs><path id="a" d="M71 20h40v40H71z"/><path id="b" d="M71 70h40v40H71z"/><path id="c" d="M20 70h40v40H20z"/><path id="d" d="M0 0h60v60H0z"/></defs><g transform="translate(11 6)" fill="none" fill-rule="evenodd"><circle fill="#EFF7FE" cx="87" cy="87" r="87"/><g transform="translate(22 25)"><use fill="#FFF" xlink:href="#a"/><path stroke="#A8B8C8" stroke-width="2" d="M70 19h42v42H70z"/></g><path fill="#E7F0F9" d="M93 45h40v20H93z"/><path fill="#C7D6E5" d="M99 70h29v3H99z"/><g transform="translate(22 25)"><use fill="#FFF" xlink:href="#b"/><path stroke="#A8B8C8" stroke-width="2" d="M70 69h42v42H70z"/></g><g transform="translate(22 25)"><use fill="#FFF" xlink:href="#c"/><path stroke="#A8B8C8" stroke-width="2" d="M19 69h42v42H19z"/></g><path fill="#E7F0F9" d="M93 95h40v20H93zm-51 0h40v20H42z"/><path fill="#C7D6E5" d="M100 120h26v3h-26zm-52 0h28v3H48zm55 5h21v3h-21z"/><g transform="translate(22 25)"><use fill="#FFF" xlink:href="#d"/><path stroke="#81BB0F" stroke-width="3" d="M-1.5-1.5h63v63h-63z"/></g><path d="M52 66.5c6.351 0 11.5-5.149 11.5-11.5S58.351 43.5 52 43.5 40.5 48.649 40.5 55 45.649 66.5 52 66.5z" stroke="#81BB0F" stroke-width="3"/><path d="M54 53.077V48h-4v5.077h-5.077v4H50V62h4v-4.923h4.923v-4H54z" fill="#81BB0F"/></g></svg>