<svg width="238" height="262" viewBox="0 0 238 262" xmlns="http://www.w3.org/2000/svg" xmlns:xlink="http://www.w3.org/1999/xlink"><title>Crystal Ball</title><defs><circle id="a" cx="88.326" cy="88.326" r="87.654"/><linearGradient x1="50%" y1="43.772%" x2="50%" y2="86.365%" id="b"><stop stop-color="#FFF" stop-opacity="0" offset="0%"/><stop stop-color="#0780CA" offset="100%"/></linearGradient><filter x="0%" y="0%" width="100%" height="100%" filterUnits="objectBoundingBox" id="d"><feGaussianBlur in="SourceGraphic"/></filter><filter x="0%" y="0%" width="100%" height="100%" filterUnits="objectBoundingBox" id="e"><feGaussianBlur in="SourceGraphic"/></filter></defs><g fill="none" fill-rule="evenodd"><ellipse fill-opacity=".65" fill="#B6C4D2" cx="113.5" cy="258" rx="113.5" ry="4"/><g transform="translate(18 29)"><circle stroke="#093967" stroke-width="4" opacity=".65" cx="95.5" cy="95.5" r="97.5"/><g transform="translate(7.174 7.174)"><mask id="c" fill="#fff"><use xlink:href="#a"/></mask><use fill="#D4EBFB" opacity=".539" xlink:href="#a"/><path fill-opacity=".45" fill="url(#b)" style="mix-blend-mode:multiply" mask="url(#c)" d="M-21.521-20.624h218.798v218.798H-21.521z"/></g><circle fill-opacity=".35" fill="#FFF" filter="url(#d)" cx="76.02" cy="72.219" r="62.716"/><ellipse fill-opacity=".25" fill="#FFF" filter="url(#e)" transform="scale(-1 1) rotate(30 0 -156.986)" cx="54.602" cy="46.791" rx="31.715" ry="18.163"/></g><path d="M39.108 202h152.235a5 5 0 0 1 5 5v21.5H34.108V207a5 5 0 0 1 5-5z" stroke="#093967" stroke-width="4" fill="#5EAEE4"/><path d="M23 220.435h181a5 5 0 0 1 5 5V255H18v-29.565a5 5 0 0 1 5-5z" stroke="#093967" stroke-width="4" fill="#5EAEE4"/><g fill="#435669"><path fill-opacity=".5" style="mix-blend-mode:multiply" d="M114.65 210.065h79.392v8.065H114.65zM113.5 237.717h94.35v14.978H113.5z"/><path fill-opacity=".25" style="mix-blend-mode:multiply" d="M36.41 210.065h78.24v8.065H36.41zM20.301 237.717h93.2v14.978H20.3z"/></g><path fill="#F23218" fill-rule="nonzero" d="M235 14.913h-14.797L215.5 0l-4.703 14.913H196l12.618 9.174L202.882 39l12.618-9.177L228.118 39l-5.736-14.913z"/><path fill="#81BB0F" fill-rule="nonzero" d="M238 61.089h-11.003L223.5 50l-3.497 11.089H209l9.383 6.822L214.117 79l9.383-6.824L232.883 79l-4.266-11.089z"/><path fill="#1982C8" fill-rule="nonzero" d="M183 17.177h-9.106L171 8l-2.894 9.177H159l7.765 5.646-3.53 9.177L171 26.353 178.765 32l-3.53-9.177z"/></g></svg>