<svg width="196" height="186" viewBox="0 0 196 186" xmlns="http://www.w3.org/2000/svg" xmlns:xlink="http://www.w3.org/1999/xlink"><title>illustration-add</title><defs><path id="a" d="M0 175.059h188.284V0H0z"/></defs><g transform="translate(-24)" fill="none" fill-rule="evenodd"><circle fill="#EFF7FE" cx="122" cy="90" r="87"/><g transform="translate(28 8)"><path d="M72.023 54.88H17.797a1 1 0 0 1-1-1V9.574a1 1 0 0 1 1-1h54.226a1 1 0 0 1 1 1V53.88a1 1 0 0 1-1 1z" fill="#FFF"/><path d="M21.448 12.508c0 .434-.35.785-.78.785a.783.783 0 0 1-.782-.785c0-.434.35-.785.781-.785.431 0 .781.351.781.785M23.791 12.508c0 .434-.35.785-.78.785a.783.783 0 0 1-.782-.785c0-.434.35-.785.781-.785.431 0 .781.351.781.785M26.134 12.508c0 .434-.35.785-.781.785a.783.783 0 0 1-.781-.785c0-.434.35-.785.78-.785.432 0 .782.351.782.785M28.476 14.078h39.827v-3.139H28.476z" fill="#B6C4D2"/><mask id="b" fill="#fff"><use xlink:href="#a"/></mask><path d="M17.797 53.879h54.226V16.393H17.797v37.486zm0-38.486h54.226V9.45H17.797v5.943zM72.023 8.45H17.797a1 1 0 0 0-1 1v44.429a1 1 0 0 0 1 1h54.226a1 1 0 0 0 1-1V9.45a1 1 0 0 0-1-1z" fill="#8695A4" mask="url(#b)"/><path d="M35.538 45.48a2.489 2.489 0 0 1-2.39-1.767l-3.956-12.85a2.48 2.48 0 0 1 .18-1.905 2.486 2.486 0 0 1 1.475-1.22l22.572-6.95a2.488 2.488 0 0 1 3.125 1.654l3.957 12.85a2.486 2.486 0 0 1-.18 1.905 2.486 2.486 0 0 1-1.474 1.22l-22.573 6.951c-.24.073-.487.111-.736.111" fill="#FFF" mask="url(#b)"/><path d="M54.155 20.176c-.292 0-.59.043-.884.134l-22.573 6.95a3.001 3.001 0 0 0-1.984 3.75l3.957 12.85a3 3 0 0 0 3.75 1.985l22.573-6.95a3 3 0 0 0 1.984-3.75L57.02 22.294a3.002 3.002 0 0 0-2.866-2.118m0 1c.883 0 1.65.568 1.91 1.413l3.958 12.85a2.003 2.003 0 0 1-1.324 2.5l-22.572 6.95a1.99 1.99 0 0 1-2.5-1.323l-3.957-12.85a2.002 2.002 0 0 1 1.323-2.5l22.573-6.951c.192-.06.39-.09.589-.09" fill="#365775" mask="url(#b)"/><path d="M32.542 46.256a2.49 2.49 0 0 1-2.483-2.243l-1.38-13.375a2.479 2.479 0 0 1 .549-1.834 2.474 2.474 0 0 1 1.683-.91l27.628-2.848a2.49 2.49 0 0 1 2.743 2.231l1.379 13.375a2.483 2.483 0 0 1-.547 1.833 2.485 2.485 0 0 1-1.683.91l-27.628 2.848a2.562 2.562 0 0 1-.261.013" fill="#FFF" mask="url(#b)"/><path d="M58.799 24.533c-.103 0-.207.005-.312.016l-27.628 2.848a3 3 0 0 0-2.677 3.291l1.379 13.376a3 3 0 0 0 3.292 2.677l27.629-2.848a3 3 0 0 0 2.676-3.292l-1.379-13.376a3 3 0 0 0-2.98-2.692m0 1c1.026 0 1.88.771 1.986 1.795l1.378 13.375a2.001 2.001 0 0 1-1.784 2.195L32.75 45.746a1.993 1.993 0 0 1-2.194-1.785l-1.379-13.375a1.985 1.985 0 0 1 .438-1.467 1.99 1.99 0 0 1 1.347-.728l27.628-2.847c.07-.008.14-.011.209-.011" fill="#365775" mask="url(#b)"/><path fill="#365775" mask="url(#b)" d="M38.366 27.07l-.995.104.293 2.839.995-.103zM38.9 32.255l-.994.103.291 2.84.995-.104zM39.449 37.578l-.995.103.293 2.838.995-.102zM40.022 43.132l-.995.103.292 2.84.995-.104zM45.994 36.511l-.47.58a.208.208 0 0 0-.047.151.208.208 0 0 0 .077.142l3.202 2.603a.196.196 0 0 0 .153.046.197.197 0 0 0 .136-.072l.472-.582-.48-1.532 1.77-2.15 2.573 3.712c.151.093.31.07.386-.023l.75-.922-1.976-4.756 1.472-1.694c.402-.496.347-1.228-.135-1.62a1.074 1.074 0 0 0-.803-.234 1.21 1.21 0 0 0-.829.46L50.9 32.395l-5.027-.957-.752.924a.265.265 0 0 0 .041.373l4.146 1.755-1.743 2.178-1.57-.156zm2.892 4.523c-.277 0-.543-.093-.76-.271l-3.203-2.603a1.203 1.203 0 0 1-.175-1.7l.81-.996 1.564.154.58-.724-3.104-1.331c-.608-.494-.69-1.29-.254-1.832l1.13-1.389 5.003.955.981-1.293c.391-.486.926-.78 1.513-.84a2.077 2.077 0 0 1 1.538.455c.908.74 1.028 2.102.27 3.038l-1.077 1.239 1.965 4.736-1.126 1.386a1.286 1.286 0 0 1-1.778.184l-.156-.152-1.869-2.697-.586.712.481 1.527-.81.997a1.195 1.195 0 0 1-.937.446z"/><path d="M56.016 96.75H1.388a1 1 0 0 1-1-1V50.795a1 1 0 0 1 1-1h54.628a1 1 0 0 1 1 1V95.75a1 1 0 0 1-1 1" fill="#FFF" mask="url(#b)"/><path d="M4.717 53.783c0 .44-.354.796-.792.796a.794.794 0 0 1-.792-.796.793.793 0 0 1 1.584 0M7.092 53.783c0 .44-.354.796-.792.796a.793.793 0 0 1-.79-.796c0-.439.353-.795.79-.795.438 0 .792.356.792.795M9.468 53.783c0 .44-.354.796-.792.796a.794.794 0 0 1-.792-.796.793.793 0 0 1 1.584 0M11.844 55.375h40.387v-3.183H11.844z" fill="#B6C4D2" mask="url(#b)"/><path d="M1 95.75h55.016V57.784H1V95.75zm0-38.966h55.016v-5.989H1v5.989zm55.016-6.989H1a1 1 0 0 0-1 1V95.75a1 1 0 0 0 1 1h55.016a1 1 0 0 0 1-1V50.795a1 1 0 0 0-1-1z" fill="#8695A4" mask="url(#b)"/><path d="M42.974 85.978H6.198v-3.25H51.13c-.548 3.003-3.53 3.25-8.157 3.25M13.697 72.586c2.564-1.411 4.382-5.543 4.884-6.786l3.353.94c-.508.65-1.337 1.819-1.754 3.025a.5.5 0 1 0 .945.326c.45-1.305 1.502-2.631 1.857-3.057l3.848 1.08c-.51.658-1.313 1.802-1.72 2.982a.5.5 0 1 0 .945.326c.437-1.266 1.438-2.55 1.82-3.014l3.817 1.07c-.5.63-1.382 1.848-1.815 3.103a.5.5 0 1 0 .945.326c.478-1.385 1.64-2.804 1.92-3.134l3.648 1.023c-.51.652-1.332 1.814-1.745 3.013a.5.5 0 1 0 .945.326c.447-1.295 1.483-2.608 1.846-3.045l4.788 1.343c-.586 1.168-2.225 4.822-2.343 9.295H6.198V74.34c1.298-.07 5.02-.39 7.499-1.754M51.23 81.64c0 .03-.005.057-.005.088H40.88c.132-4.631 2.02-8.438 2.364-9.092 5.885.073 7.983 2.446 7.986 9.004m-8.164-10.01h-.001l-24.523-6.88a.645.645 0 0 0-.782.401c-.02.05-1.906 5.105-4.547 6.559-2.73 1.503-7.341 1.644-7.387 1.646a.648.648 0 0 0-.63.646V86.33c0 .356.29.648.649.648h37.128c4.338 0 9.257 0 9.257-5.338-.003-7.17-2.573-9.982-9.164-10.01" fill="#365775" mask="url(#b)"/><path d="M187.284 102.061h-67.788a1 1 0 0 1-1-1V45.195a1 1 0 0 1 1-1h67.788a1 1 0 0 1 1 1v55.866a1 1 0 0 1-1 1" fill="#FFF" mask="url(#b)"/><path d="M123.83 49.006c0 .542-.436.98-.975.98a.978.978 0 0 1-.976-.98c0-.542.437-.981.976-.981.539 0 .976.439.976.98M126.758 49.006c0 .542-.437.98-.976.98a.978.978 0 0 1-.976-.98c0-.542.437-.981.976-.981.54 0 .976.439.976.98M129.686 49.006c0 .542-.437.98-.976.98a.978.978 0 0 1-.976-.98c0-.542.437-.981.976-.981.54 0 .976.439.976.98M132.614 50.967h49.771v-3.923h-49.771z" fill="#B6C4D2" mask="url(#b)"/><path d="M119.018 100.957h68.266V53.82h-68.266v47.137zm0-48.137h68.266v-7.729h-68.266v7.729zm68.266-8.729h-68.266a1 1 0 0 0-1 1v55.866a1 1 0 0 0 1 1h68.266a1 1 0 0 0 1-1V45.091a1 1 0 0 0-1-1z" fill="#8695A4" mask="url(#b)"/><path d="M146.301 56.88h-66.88a1 1 0 0 1-1-1V1.153a1 1 0 0 1 1-1h66.88a1 1 0 0 1 1 1V55.88a1 1 0 0 1-1 1" fill="#FFF" mask="url(#b)"/><path d="M84.12 4.972a.959.959 0 0 1-.957.96.958.958 0 0 1-.956-.96c0-.531.428-.961.956-.961.529 0 .957.43.957.96M86.99 4.972a.959.959 0 0 1-.957.96.96.96 0 0 1-.957-.96.96.96 0 0 1 .957-.961c.529 0 .957.43.957.96M89.86 4.972a.96.96 0 0 1-.957.96.96.96 0 0 1-.957-.96.96.96 0 0 1 .957-.961.96.96 0 0 1 .957.96M92.729 6.895h48.791V3.049H92.729z" fill="#B6C4D2" mask="url(#b)"/><path d="M79.422 55.879h66.88V9.619h-66.88v46.26zm-.001-47.26h66.88V1h-66.88v7.619zM146.301 0H79.422a1 1 0 0 0-1 1v54.879a1 1 0 0 0 1 1h66.879a1 1 0 0 0 1-1V1a1 1 0 0 0-1-1z" fill="#8695A4" mask="url(#b)"/><path d="M115.987 12.567H108.668l-4.106 1.368c-.341.136-.546.48-.41.82 0 .07 1.3 4.585.069 7.048-.137.136-.137.272-.137.41l1.369 5.336-5.475 23.808a.654.654 0 0 0 .275.685.81.81 0 0 0 .443.143.683.683 0 0 0 .309-.074s1.125-.547 2.787-.547a7.55 7.55 0 0 1 2.823.547h.137c0 .274.068.546.135.821 0 .205.137.341.275.48.137.135.342.135.547.135 1.675-.342 3.164-.513 4.652-.513s2.976.171 4.652.513h.136c.137 0 .275-.068.41-.136.137-.136.276-.274.276-.479.068-.275.068-.547.135-.82h.137a7.667 7.667 0 0 1 2.86-.564c1.594 0 2.66.518 2.75.563a.506.506 0 0 0 .28.074.89.89 0 0 0 .472-.143c.07-.207.207-.412.138-.685l-5.473-23.808 1.3-5.336c.07-.136 0-.34-.068-.479-1.162-2.394.137-6.979.137-6.979.068-.34-.07-.75-.412-.82l-4.104-1.368zm-.162 1l3.636 1.211c-.294 1.148-1.124 4.921-.028 7.322l-1.27 5.213-.056.23.053.231 5.326 23.17a8.013 8.013 0 0 0-2.518-.396 8.633 8.633 0 0 0-3.048.563h-.734l-.186.761a4.502 4.502 0 0 0-.09.521c-.003.037-.008.074-.013.112-1.65-.32-3.1-.47-4.536-.47-1.44 0-2.893.15-4.548.472a1.908 1.908 0 0 1-.061-.396v-1h-.951a8.552 8.552 0 0 0-5.716-.105l5.342-23.232.054-.238-.06-.235-1.3-5.064c1.084-2.184.527-5.546.066-7.456l3.643-1.214h6.995z" fill="#365775" mask="url(#b)"/><path fill="#365775" mask="url(#b)" d="M105.868 27.961h12.762v-1h-12.762z"/><path fill="#365775" mask="url(#b)" d="M114.417 27.656l-6.14-14.5.923-.39 6.137 14.5z"/><path fill="#365775" mask="url(#b)" d="M112.49 20.977l-.9-.434 3.754-7.799.9.434zM107.372 53.133a.5.5 0 0 1-.5-.493c-.007-.474-.154-11.667.594-16.7.04-.274.3-.456.567-.422a.5.5 0 0 1 .42.568c-.734 4.955-.583 16.425-.581 16.54a.5.5 0 0 1-.493.507h-.007zM117.347 53.133h-.007a.5.5 0 0 1-.493-.507c.002-.115.152-11.586-.583-16.54a.5.5 0 0 1 .421-.568.506.506 0 0 1 .567.422c.748 5.033.602 16.226.595 16.7a.5.5 0 0 1-.5.493M151.328 58.245a4.067 4.067 0 0 0-4.084 4.083c0 1.21.504 2.32 1.412 3.076-.304.857-.403 1.764-.403 2.672 0 1.461.352 2.823 1.008 4.032l-5.242 4.486c-1.412 1.21-1.763 3.225-.907 4.888a4.105 4.105 0 0 0 3.628 2.218c.304 0 .556-.052.857-.1l-1.16 3.075a4.503 4.503 0 0 0-2.42 1.26 4.684 4.684 0 0 0 0 6.603l.908.91a4.663 4.663 0 0 0 3.276 1.36 4.576 4.576 0 0 0 3.276-1.36c.808-.81 1.21-1.819 1.312-2.878v-.152c0-1.563 1.26-3.276 4.032-3.276 2.722 0 3.982 1.713 3.982 3.276v.051a4.31 4.31 0 0 0 1.36 2.974 4.663 4.663 0 0 0 3.276 1.36c1.16 0 2.369-.453 3.277-1.36l.908-.908c1.866-1.863 1.866-4.787.05-6.602a4.503 4.503 0 0 0-2.42-1.26l-1.158-3.125c.302.051.554.1.856.1a4.105 4.105 0 0 0 3.628-2.216 4.014 4.014 0 0 0-.956-4.89l-5.092-4.384c.655-1.209 1.059-2.62 1.059-4.084 0-.957-.152-1.865-.452-2.772.806-.756 1.31-1.865 1.31-2.974a4.066 4.066 0 0 0-4.083-4.083 4.107 4.107 0 0 0-3.125 1.461 8.288 8.288 0 0 0-2.306-.334 7.88 7.88 0 0 0-2.431.385c-.756-.957-1.916-1.512-3.176-1.512m0 1c.95 0 1.823.413 2.392 1.132l.43.545.66-.213a6.92 6.92 0 0 1 2.125-.337c.672 0 1.354.1 2.028.294l.628.182.418-.5a3.103 3.103 0 0 1 2.357-1.103 3.05 3.05 0 0 1 3.083 3.083c0 .81-.381 1.67-.994 2.244l-.468.437.202.608c.27.815.402 1.618.402 2.457a7.603 7.603 0 0 1-.94 3.607l-.383.71.61.524 5.095 4.387a3.005 3.005 0 0 1 .719 3.67 3.12 3.12 0 0 1-2.74 1.676c-.185 0-.356-.029-.594-.07l-.096-.016-1.706-.288.602 1.622 1.159 3.124.2.543.573.096a3.503 3.503 0 0 1 1.878.981 3.587 3.587 0 0 1 1.062 2.57 3.716 3.716 0 0 1-1.113 2.618l-.908.908a3.67 3.67 0 0 1-2.57 1.067c-.954 0-1.89-.39-2.59-1.089a3.267 3.267 0 0 1-1.046-2.245v-.05c0-2.126-1.711-4.277-4.982-4.277-3.304 0-5.032 2.151-5.032 4.276v.102c-.093.89-.436 1.636-1.02 2.22a3.564 3.564 0 0 1-2.568 1.067 3.657 3.657 0 0 1-2.568-1.067l-.91-.909a3.674 3.674 0 0 1 0-5.189 3.503 3.503 0 0 1 1.879-.98l.568-.096.203-.539 1.16-3.075.61-1.619-1.708.28-.133.022c-.224.037-.386.065-.562.065a3.12 3.12 0 0 1-2.74-1.675c-.651-1.266-.376-2.776.67-3.672l5.24-4.485.615-.525-.385-.71a7.372 7.372 0 0 1-.887-3.557c0-.915.113-1.68.346-2.338l.232-.657-.535-.445c-.678-.565-1.052-1.385-1.052-2.308a3.05 3.05 0 0 1 3.084-3.083"/><path d="M155.076 68.9l1.108 1.16a.917.917 0 0 0 1.36 0l1.06-1.16c.555-.603.1-1.562-.705-1.562h-2.116c-.808 0-1.263.959-.707 1.563M159.713 65.272c0 .874-1.31.874-1.31 0s1.31-.874 1.31 0M155.276 65.272c0 .874-1.31.874-1.31 0s1.31-.874 1.31 0M149.51 89.539a.496.496 0 0 1-.403-.203c-.9-1.222-2.163-1.668-2.422-1.678a.507.507 0 0 1-.489-.51.492.492 0 0 1 .491-.49c.57 0 2.153.63 3.224 2.085a.499.499 0 0 1-.402.796M163.65 89.539a.5.5 0 0 1-.402-.797c1.073-1.454 2.654-2.084 3.224-2.084a.5.5 0 0 1 .002 1c-.26.01-1.521.457-2.422 1.678a.496.496 0 0 1-.402.203M148.503 83.157a.5.5 0 0 1-.463-.69c.042-.102 1.049-2.536 2.59-4.59a.5.5 0 0 1 .8.601c-1.465 1.952-2.454 4.345-2.464 4.369a.502.502 0 0 1-.463.31M165.237 83.196a.502.502 0 0 1-.463-.31c-.01-.024-1.002-2.42-2.464-4.37a.499.499 0 1 1 .799-.6c1.542 2.053 2.549 4.488 2.59 4.59a.5.5 0 0 1-.462.69M156.918 72.923c-1.013 0-1.96-.37-2.663-1.042a.5.5 0 1 1 .689-.723c.987.94 2.76.994 3.816.116a.499.499 0 1 1 .64.768 3.875 3.875 0 0 1-2.482.88" fill="#365775" mask="url(#b)"/><path d="M48.35 175.06a2.029 2.029 0 0 1-2.027-2.028V94.085c0-1.117.91-2.026 2.027-2.026h97.531a2.03 2.03 0 0 1 2.028 2.026v78.947a2.03 2.03 0 0 1-2.028 2.027h-97.53z" fill="#FFF" mask="url(#b)"/><path d="M54.226 98.532a1.43 1.43 0 1 1-2.861 0 1.43 1.43 0 0 1 2.86 0M58.515 98.532a1.43 1.43 0 1 1-2.86 0 1.43 1.43 0 0 1 2.86 0M62.804 98.532a1.43 1.43 0 1 1-2.86 0 1.43 1.43 0 0 1 2.86 0M67.092 101.391h72.914v-5.719H67.092z" fill="#B6C4D2" mask="url(#b)"/><path d="M47.323 174.059h99.585v-69.15H47.323v69.15zm.001-70.15h99.585v-10.85H47.324v10.85zm99.585-11.85H47.323a1 1 0 0 0-1 1v81a1 1 0 0 0 1 1h99.586a1 1 0 0 0 1-1v-81a1 1 0 0 0-1-1z" fill="#8695A4" mask="url(#b)"/><path d="M114.011 129.75l.003 23.505c0 .986-.666 1.849-1.62 2.098l-10.3 2.678c-.894.232-1.625-.332-1.627-1.254-.007-2.69-.014-5.38-.018-8.071v-.692l-5.69 1.152c.022 2.349.013 5.428.01 7.775 0 1.103-.503 1.499-1.56 1.227-3.556-.915-7.11-1.838-10.662-2.765a1.684 1.684 0 0 1-1.427-1.815c-.004-7.81-.004-15.62 0-23.43 0-1.45.63-1.933 2.058-1.685 3.384.58 6.768 1.152 10.154 1.716 1.142.19 1.44.519 1.09 1.659v8.618l6.027-1.291v-.614l.018-6.741a1.534 1.534 0 0 1 1.273-1.507c3.53-.61 7.06-1.208 10.59-1.792 0 0 1.682-.416 1.682 1.234v-.004zm-25.756-11.982a1.255 1.255 0 0 1 1.661-.355c.515.265.99.605 1.408 1.002.647.639 1.214 1.364 1.816 2.052l-.12.194c-1.595.01-3.163-.133-4.469-1.225a1.238 1.238 0 0 1-.294-1.668h-.002zm16.607 0a1.327 1.327 0 0 1 1.864.328 1.316 1.316 0 0 1-.489 1.778 6.435 6.435 0 0 1-4.463.967c.991-1.156 1.776-2.374 3.09-3.073h-.002zm13.836 6.368c-2.203-.18-4.407-.34-6.61-.51l-3.759-.29c.043-.104.045-.131.06-.138.207-.155.423-.304.631-.461 1.506-1.136 2.31-2.55 1.98-4.517a4.352 4.352 0 0 0-4.509-3.76 6.595 6.595 0 0 0-4.49 2.076c-1.356 1.364-2.595 2.846-3.869 4.294-.665.755-.727.764-1.395-.017-.976-1.148-1.942-2.307-2.956-3.42a8.487 8.487 0 0 0-4.518-2.834c-3.43-.72-5.69 2.02-5.437 4.996a4.487 4.487 0 0 0 2.145 3.259c.198.139.392.286.634.467a1.49 1.49 0 0 1-.225.086c-3.227.249-6.455.5-9.68.742-1.38.099-1.873.578-1.873 1.86.007 8.15.011 15.546.014 23.696 0 2.176-.007 5.068 0 7.278h-.007v.54c0 1.198.8 2.247 1.956 2.569l17.616 4.813 2.868.785c.045.013.1.013.155.023.058-.01.114-.01.17-.023l2.867-.785 17.605-4.813a2.675 2.675 0 0 0 1.966-2.568V157.163c.006-10.52.008-21.04.006-31.56a1.36 1.36 0 0 0-.346-1.03 1.381 1.381 0 0 0-.997-.44l-.002.003z" fill="#EF3225" mask="url(#b)"/></g></g></svg>