<svg width="181" height="184" viewBox="0 0 181 184" xmlns="http://www.w3.org/2000/svg" xmlns:xlink="http://www.w3.org/1999/xlink"><title>Share - Illustration</title><defs><path id="a" d="M.936 0h40v40h-40z"/><path id="b" d="M.936 0h40v20h-40z"/><circle id="d" cx="24" cy="24" r="24"/><circle id="e" cx="24" cy="24" r="24"/><circle id="f" cx="24" cy="24" r="24"/><circle id="g" cx="24" cy="24" r="24"/></defs><g transform="translate(.064)" fill="none" fill-rule="evenodd"><circle fill="#EFF7FE" cx="87" cy="87" r="87"/><g stroke="#B6C4D2" stroke-width="2" stroke-linecap="round" stroke-dasharray="4"><path d="M51.936 108c20.833 12.333 32 25.167 33.5 38.5M134.936 103.5c-24 12.333-37 28.333-39 48M104.936 59.5c-15 24.333-21.333 51.333-19 81M52.936 49.5c26.333 27 41.333 56 45 87"/></g><g transform="translate(67 142)"><use fill="#FFF" xlink:href="#a"/><path stroke="#65778A" stroke-width="2" d="M-.064-1h42v42h-42z"/></g><g transform="translate(67 142)"><mask id="c" fill="#fff"><use xlink:href="#b"/></mask><use fill="#EBC617" xlink:href="#b"/><path fill="#D4B72F" mask="url(#c)" d="M.436 20.5L10.936 7l8 7.5L29.436 2l12.5 18.5z"/></g><path fill="#8695A5" d="M73 167h29.064v3H73zM79 172h17.064v3H79z"/><g transform="translate(132 73)"><use fill="#FFF" xlink:href="#d"/><circle stroke="#8695A5" cx="24" cy="24" r="23.5"/></g><path d="M169 108.514a1.49 1.49 0 0 1-1.486 1.486h-23.028a1.49 1.49 0 0 1-1.486-1.486V85.486A1.49 1.49 0 0 1 144.486 84h23.028A1.49 1.49 0 0 1 169 85.486v23.028z" fill="#3C5A98"/><path d="M158.553 109v-9.854H156v-3.548h2.553v-3.03c0-2.381 1.508-4.568 4.982-4.568 1.407 0 2.447.138 2.447.138l-.082 3.313s-1.06-.01-2.218-.01c-1.253 0-1.454.588-1.454 1.567v2.59H166l-.164 3.548h-3.608V109h-3.675z" fill="#FFF"/><g><g transform="translate(93 18)"><use fill="#FFF" xlink:href="#e"/><circle stroke="#8695A5" cx="24" cy="24" r="23.5"/></g><path d="M128.68 31.342c1.974 1.993 2.71 4.362 2.125 6.853-.465 1.976-1.77 4.057-3.881 6.187-.65.655-1.295 1.23-1.932 1.73.173-.438.313-.875.415-1.309a7.905 7.905 0 0 0 .122-3.134c3.985-4.381 2.58-6.814 1.125-8.281-.998-1.007-2.018-1.496-3.119-1.496-1.667 0-3.602 1.1-5.751 3.27-4.762 4.806-3.283 7.41-1.756 8.95.997 1.006 2.017 1.495 3.119 1.495.26 0 .527-.03.8-.084-.492.789-1.17 1.629-2.052 2.518-.095.096-.188.182-.281.273-1.292-.317-2.503-1.037-3.613-2.157-4.858-4.901-.985-10.274 1.757-13.04 2.705-2.731 5.323-4.117 7.777-4.117 1.875 0 3.605.787 5.145 2.342zm-10.3 4.344c1.292.316 2.504 1.035 3.615 2.157 1.975 1.992 2.71 4.363 2.123 6.854-.465 1.977-1.77 4.057-3.879 6.186-2.706 2.732-5.322 4.117-7.776 4.117-1.873 0-3.604-.788-5.145-2.343-1.975-1.992-2.707-4.362-2.122-6.853.466-1.976 1.77-4.058 3.88-6.187a20.613 20.613 0 0 1 1.983-1.77c-.61 1.534-.804 3.037-.576 4.469-1.361 1.496-2.201 2.892-2.499 4.156-.358 1.525.074 2.84 1.362 4.14.997 1.007 2.016 1.496 3.118 1.496 1.666 0 3.6-1.1 5.75-3.27 1.728-1.744 2.776-3.362 3.118-4.808.359-1.527-.073-2.84-1.361-4.14-.997-1.007-2.018-1.496-3.119-1.496-.268 0-.543.032-.824.089.464-.744 1.137-1.577 2.074-2.523.092-.095.185-.184.278-.274z" fill="#65778A" fill-rule="nonzero"/></g><g><g transform="translate(15 10)"><use fill="#FFF" xlink:href="#f"/><circle stroke="#8695A5" cx="24" cy="24" r="23.5"/></g><path d="M55 24.96a12.79 12.79 0 0 1-3.653.993 6.34 6.34 0 0 0 2.797-3.492 12.795 12.795 0 0 1-4.04 1.532A6.374 6.374 0 0 0 45.464 22c-3.513 0-6.36 2.826-6.36 6.311 0 .495.056.976.164 1.438a18.102 18.102 0 0 1-13.109-6.594 6.244 6.244 0 0 0-.861 3.173 6.296 6.296 0 0 0 2.83 5.253 6.372 6.372 0 0 1-2.881-.79v.08c0 3.058 2.191 5.609 5.1 6.189a6.42 6.42 0 0 1-2.871.108 6.36 6.36 0 0 0 5.94 4.383 12.823 12.823 0 0 1-7.898 2.702A13 13 0 0 1 24 44.164 18.102 18.102 0 0 0 33.75 47c11.698 0 18.095-9.617 18.095-17.957 0-.274-.006-.546-.019-.817A12.865 12.865 0 0 0 55 24.96" fill="#3392FF"/></g><g><g transform="translate(9 73)"><use fill="#FFF" xlink:href="#g"/><circle stroke="#8695A5" cx="24" cy="24" r="23.5"/><use stroke="#979797" xlink:href="#g"/></g><g transform="translate(19 87)"><rect fill="#FFF" y="1.727" width="28" height="17.273" rx="2.384"/><path d="M24.963 0H3.037C1.362 0 0 1.407 0 3.137v12.726C0 17.593 1.362 19 3.037 19h21.926C26.638 19 28 17.593 28 15.863V3.137C28 1.406 26.638 0 24.963 0zm-5.634 8.871l7.05-5.963c.011.075.023.15.023.227v12.727c0 .042-.01.082-.013.125L19.33 8.87zm5.634-7.22c.114 0 .224.017.33.044L14 11.243 2.707 1.693c.107-.025.217-.043.33-.043h21.926zM1.611 15.987c-.004-.043-.013-.081-.013-.125V3.137c0-.078.012-.154.023-.227l7.05 5.963-7.06 7.114zm1.426 1.36c-.146 0-.285-.029-.418-.071l7.296-7.354L14 13.376l4.083-3.454 7.297 7.354a1.358 1.358 0 0 1-.419.072l-21.924.001v-.001z" fill="#65778A" fill-rule="nonzero"/></g></g></g></svg>