<?xml version="1.0" encoding="UTF-8" standalone="no"?>
<svg
   xmlns:dc="http://purl.org/dc/elements/1.1/"
   xmlns:cc="http://creativecommons.org/ns#"
   xmlns:rdf="http://www.w3.org/1999/02/22-rdf-syntax-ns#"
   xmlns:svg="http://www.w3.org/2000/svg"
   xmlns="http://www.w3.org/2000/svg"
   xmlns:sodipodi="http://sodipodi.sourceforge.net/DTD/sodipodi-0.dtd"
   xmlns:inkscape="http://www.inkscape.org/namespaces/inkscape"
   width="161"
   height="30"
   viewBox="0 0 161 30"
   version="1.1"
   id="svg3754"
   sodipodi:docname="logo_orange.svg"
   inkscape:version="0.92.1 r15371">
  <metadata
     id="metadata3760">
    <rdf:RDF>
      <cc:Work
         rdf:about="">
        <dc:format>image/svg+xml</dc:format>
        <dc:type
           rdf:resource="http://purl.org/dc/dcmitype/StillImage" />
        <dc:title></dc:title>
      </cc:Work>
    </rdf:RDF>
  </metadata>
  <defs
     id="defs3758" />
  <sodipodi:namedview
     pagecolor="#ffffff"
     bordercolor="#666666"
     borderopacity="1"
     objecttolerance="10"
     gridtolerance="10"
     guidetolerance="10"
     inkscape:pageopacity="0"
     inkscape:pageshadow="2"
     inkscape:window-width="1920"
     inkscape:window-height="999"
     id="namedview3756"
     showgrid="false"
     inkscape:zoom="10.68323"
     inkscape:cx="80.5"
     inkscape:cy="15"
     inkscape:window-x="0"
     inkscape:window-y="0"
     inkscape:window-maximized="1"
     inkscape:current-layer="svg3754" />
  <g
     fill="none"
     fill-rule="evenodd"
     id="g3752">
    <path
       d="M46.134 22.65c-4.644 0-7.698-3.308-7.698-7.655-.035-2.045.76-4.017 2.2-5.467 1.443-1.45 3.41-2.255 5.456-2.23 2.09-.1 4.14.623 5.704 2.014l-1.654 1.972c-1.12-1.06-2.615-1.632-4.156-1.59-2.736 0-4.814 2.375-4.814 5.26 0 3.074 2.015 5.322 5.047 5.322 1.283.014 2.538-.38 3.583-1.124v-2.78h-3.796v-2.267h6.32v6.234c-1.72 1.49-3.918 2.31-6.193 2.31zM60.066 7.552v14.844h-2.608V7.552M76.67 9.927h-8.44v4.05h7.486v2.376H68.23v6.043h-2.608V7.552H76.67M87.4 22.396h-2.63V9.97h-4.708V7.55h12.046V9.97H87.4"
       fill="#124680"
       id="path3740" />
    <path
       fill="#EE3124"
       d="M99.063 16.14v6.256h-2.608V7.552h2.608v6.17h7.083v-6.17h2.608v14.844h-2.608V16.14M125.168 9.885h-8.398v3.86h7.443v2.332h-7.443v3.986h8.504v2.333H114.16V7.552h11.008M139.482 22.396l-3.648-5.174h-3.266v5.174h-2.608V7.552h6.616c3.414 0 5.514 1.802 5.514 4.708 0 2.46-1.464 3.944-3.54 4.516l4.006 5.62h-3.074zm-3.118-12.47h-3.796v4.985h3.818c1.865 0 3.053-.975 3.053-2.502 0-1.633-1.146-2.48-3.076-2.48zM152.692 22.65c-2.762.023-5.324-1.44-6.708-3.832-1.383-2.39-1.375-5.342.022-7.726 1.397-2.383 3.967-3.833 6.73-3.795 2.762-.022 5.324 1.44 6.707 3.833 1.384 2.39 1.376 5.342-.02 7.726-1.398 2.383-3.968 3.833-6.73 3.795zm0-12.956c-2.947 0-5.004 2.354-5.004 5.26 0 2.904 2.1 5.3 5.047 5.3 2.948 0 5.005-2.354 5.005-5.26 0-2.904-2.1-5.3-5.048-5.3z"
       id="path3742" />
    <g
       id="g3750">
      <path
         fill="#FFF"
         d="M3.418 7.975h19.367v17.848H3.418z"
         id="path3744" />
      <path
         d="M18.13 3.446c.36-.208.486-.666.283-1.03-.117-.168-.296-.284-.5-.32-.2-.035-.41.012-.577.13-.76.406-1.213 1.112-1.785 1.78.9.137 1.818-.063 2.58-.56zM7.907 3.356c.755.633 1.66.716 2.584.71l.07-.113c-.348-.4-.676-.817-1.05-1.188-.242-.23-.516-.427-.813-.58-.325-.192-.743-.103-.96.205-.207.317-.132.74.17.966z"
         id="path3746" />
      <path
         d="M25.352 5.613c-1.273-.104-2.547-.197-3.82-.295L19.36 5.15c.025-.06.026-.076.034-.08.12-.09.245-.176.365-.267.87-.658 1.335-1.477 1.144-2.616C20.728.897 19.6-.047 18.298.01c-.988.048-1.92.48-2.595 1.202-.784.79-1.5 1.648-2.236 2.487-.384.437-.42.442-.806-.01-.564-.665-1.122-1.336-1.708-1.98C10.282.895 9.366.32 8.342.067 6.36-.35 5.054 1.237 5.2 2.96c.104.785.56 1.48 1.24 1.888.114.08.226.165.366.27-.042.02-.085.037-.13.05-1.865.144-3.73.29-5.594.43C.284 5.655 0 5.932 0 6.675c.004 4.72.006 9.002.008 13.722 0 1.26-.004 2.935 0 4.215H.004v.313c0 .693.462 1.302 1.13 1.487l10.18 2.787 1.657.455c.026.007.058.007.09.013.033-.006.066-.006.098-.013l1.657-.455 10.173-2.787c.67-.185 1.134-.792 1.137-1.487v-.168-.018c.003-6.092.004-12.184.003-18.276.02-.218-.054-.434-.2-.596-.15-.16-.357-.254-.576-.255zm-8.016-3.386c.168-.12.376-.166.578-.13.203.035.382.15.5.32.202.363.076.82-.283 1.03-.762.496-1.68.696-2.58.56.573-.67 1.027-1.375 1.786-1.78zm-9.6.163c.218-.308.636-.397.96-.205.298.153.572.35.814.58.374.37.702.79 1.05 1.188l-.07.113c-.922.006-1.828-.077-2.583-.71-.302-.226-.377-.65-.17-.966zM22.52 8.974l.002 13.727c0 .755-.207 1.024-.928 1.212l-6.026 1.57c-.654.17-.94-.052-.94-.735-.004-1.57-.008-3.14-.01-4.71v-.426l-3.122.667c.012 1.36.007 3.143.005 4.503 0 .638-.29.868-.902.71-2.055-.53-4.11-1.064-6.163-1.6-.51-.078-.87-.538-.825-1.052-.002-4.522-.002-9.045 0-13.568 0-.84.364-1.12 1.19-.976 1.956.336 3.912.667 5.87.994.66.11.832.3.832.96v4.991l3.115-.748v-.377l.01-3.94c.002-.54.176-.775.703-.867 2.07-.358 4.14-.71 6.21-1.053 0 0 .98-.243.98.72z"
         fill="#EE3124"
         id="path3748" />
    </g>
  </g>
  <path
     style="fill:#ff6600;stroke-width:0.09360465"
     d="M 6.9452173,27.972025 C 3.7377175,27.087296 0.96719477,26.28469 0.78849993,26.188457 0.60980507,26.092223 0.38094026,25.879741 0.27991142,25.716272 0.10096292,25.426728 0.09558497,25.171693 0.07151248,15.833511 0.05217219,8.3310389 0.07207318,6.2038256 0.16308956,6.0448511 0.22704754,5.9331383 0.41659695,5.7982536 0.58431049,5.7451073 0.75202398,5.691961 2.1107849,5.5602939 3.6037791,5.4525136 5.0967733,5.3447335 6.4446802,5.2247016 6.5991279,5.185776 L 6.8799419,5.1150024 6.4011527,4.7691354 C 5.3594735,4.0166485 4.9843602,2.8558563 5.4158784,1.7201928 5.6640409,1.0670822 6.0104274,0.65554515 6.5753215,0.34267411 6.9946405,0.11043098 7.1637524,0.07163621 7.7223837,0.07953447 9.0953302,0.09894601 9.9498,0.6450935 11.666809,2.6006744 c 0.676439,0.7704285 1.291985,1.4132895 1.367876,1.4285801 0.0769,0.015492 0.462422,-0.3367664 0.870784,-0.7956395 2.095592,-2.35480434 2.745129,-2.87303603 3.900296,-3.11184049 0.685737,-0.14176055 1.239405,-0.05621572 1.833981,0.28336051 0.824643,0.47097336 1.235781,1.22989388 1.232036,2.27422078 -0.0032,0.878767 -0.334578,1.463644 -1.21195,2.1387627 -0.17862,0.1374433 -0.297087,0.2775721 -0.263262,0.3113974 0.05567,0.055666 5.276028,0.5050912 5.907287,0.5085634 0.166686,9.174e-4 0.36651,0.1033524 0.53995,0.2767925 l 0.275337,0.275337 -0.02512,9.5765532 c -0.02477,9.440329 -0.02783,9.581165 -0.215646,9.900856 -0.104787,0.178367 -0.32654,0.403743 -0.492782,0.500834 -0.34237,0.199955 -12.078876,3.43976 -12.400225,3.423022 -0.114582,-0.006 -2.83265,-0.73472 -6.0401497,-1.619449 z m 4.3928857,-2.549281 c 0.09896,-0.119074 0.139217,-0.725058 0.175269,-2.638166 l 0.0468,-2.483584 1.216861,-0.257312 c 0.669273,-0.141522 1.353757,-0.283103 1.521075,-0.314622 l 0.304216,-0.05731 v 2.76558 c 0,2.640772 0.0085,2.774027 0.187209,2.952787 0.102965,0.102965 0.274028,0.18721 0.380139,0.18721 0.248881,0 6.293549,-1.568451 6.760812,-1.754274 0.660066,-0.262499 0.628235,0.138203 0.628235,-7.908331 0,-7.8582 0.01974,-7.5585256 -0.506707,-7.6906566 -0.306228,-0.076858 -6.875801,1.0399388 -7.145473,1.214697 -0.115836,0.075066 -0.21935,0.1460438 -0.230031,0.1577276 -0.01068,0.011684 -0.04227,1.112578 -0.0702,2.446431 l -0.05078,2.425187 -1.450872,0.355276 c -0.797979,0.195402 -1.482463,0.3572 -1.521075,0.359551 -0.03861,0.0023 -0.0702,-1.198973 -0.0702,-2.669611 0,-2.7143737 -0.02656,-2.9434355 -0.362163,-3.1230432 C 10.933606,9.2738225 4.9322851,8.2604651 4.4602013,8.2604651 c -0.4709288,0 -0.6751734,0.1225853 -0.7997742,0.4800153 -0.071992,0.206517 -0.1034504,2.4429706 -0.1034504,7.3545896 0,7.605491 -0.011193,7.427611 0.4834387,7.682725 0.3157766,0.162866 6.5283676,1.781029 6.8764666,1.791079 0.166671,0.0048 0.348081,-0.05812 0.421221,-0.14613 z M 10.549126,3.9942208 C 10.591565,3.8646256 9.5197522,2.6929407 9.042543,2.3472518 8.5515509,1.991579 8.0472037,1.984388 7.7759799,2.3291932 7.3921354,2.8171724 7.6291769,3.3176601 8.4383393,3.7276937 c 0.67837,0.343756 2.0296247,0.5143778 2.1107867,0.2665271 z m 7.124069,-0.268123 c 0.656457,-0.3000228 0.860526,-0.5212551 0.860526,-0.9328983 0,-0.6967004 -0.788118,-0.9330673 -1.468284,-0.4403576 -0.36003,0.260805 -1.444128,1.4188326 -1.514819,1.6181208 -0.0228,0.064293 0.231833,0.085097 0.748838,0.061182 0.61226,-0.028322 0.912354,-0.095178 1.373739,-0.3060469 z"
     id="path3762"
     inkscape:connector-curvature="0" />
  <path
     style="fill:#ff6600;stroke-width:0.09360465"
     d="M 96.506395,15 V 7.6052326 h 1.263663 1.263663 v 3.0889534 3.088954 h 3.556979 3.55697 V 10.694186 7.6052326 h 1.26367 1.26366 V 15 22.394767 h -1.26366 -1.26367 v -3.135755 -3.135756 h -3.55697 -3.556979 v 3.135756 3.135755 h -1.263663 -1.263663 z"
     id="path3764"
     inkscape:connector-curvature="0" />
  <path
     style="fill:#ff6600;stroke-width:0.09360465"
     d="M 114.19767,15 V 7.6052326 h 5.47588 5.47587 v 1.1232558 1.1232558 h -4.21221 -4.21221 v 1.9656978 1.965698 h 3.74419 3.74418 v 1.123255 1.123256 h -3.74601 -3.74601 l 0.0252,2.035901 0.0252,2.035901 4.23561,0.02435 4.23561,0.02435 v 1.122302 1.122302 h -5.52267 -5.52268 z"
     id="path3766"
     inkscape:connector-curvature="0" />
  <path
     style="fill:#ff6600;stroke-width:0.09360465"
     d="M 130.01686,15 V 7.6052326 h 3.70133 c 4.1454,0 4.63224,0.050842 5.82107,0.6079158 1.63828,0.7676834 2.47014,2.1393886 2.46961,4.0723166 -2.8e-4,1.065361 -0.22131,1.871002 -0.71249,2.597078 -0.51869,0.76674 -1.44784,1.43951 -2.36756,1.714287 -0.22304,0.06663 -0.38377,0.166732 -0.36139,0.225054 0.0222,0.05777 0.87945,1.282653 1.90508,2.721956 1.02562,1.439304 1.89628,2.669568 1.9348,2.733922 0.0549,0.09168 -0.25022,0.11618 -1.40978,0.113193 l -1.4798,-0.0038 -1.82614,-2.593715 -1.82614,-2.593717 -1.66063,-0.02556 -1.66063,-0.02556 v 2.623091 2.623089 h -1.26367 -1.26366 z m 7.63686,-0.223266 c 0.65127,-0.204238 1.19218,-0.618325 1.50674,-1.153456 0.23329,-0.396894 0.26367,-0.540225 0.26367,-1.244208 0,-0.703207 -0.0305,-0.847537 -0.26259,-1.242358 -0.14442,-0.245695 -0.42466,-0.553972 -0.62275,-0.68506 -0.71452,-0.4728532 -1.09047,-0.5326081 -3.63109,-0.5771534 l -2.36351,-0.04144 v 2.5210674 c 0,1.386587 0.0316,2.553881 0.0702,2.593985 0.0386,0.0401 1.08113,0.05155 2.31671,0.02542 1.68698,-0.03566 2.3651,-0.08468 2.72262,-0.196801 z"
     id="path3768"
     inkscape:connector-curvature="0" />
  <path
     style="fill:#ff6600;stroke-width:0.09360465"
     d="m 151.07791,22.45336 c -0.81226,-0.188412 -1.21239,-0.335951 -1.97403,-0.727878 -2.65303,-1.365211 -4.28089,-4.247195 -4.07957,-7.222524 0.19053,-2.81571 1.84625,-5.2447574 4.37405,-6.4169875 1.20543,-0.5590029 1.89921,-0.7068104 3.31763,-0.7068104 1.49529,0 2.15529,0.1526879 3.51017,0.8120599 0.8788,0.4276803 1.08259,0.5780537 1.92497,1.420438 0.83979,0.839786 0.99438,1.04888 1.42318,1.92497 0.6849,1.399331 0.81038,1.939472 0.80458,3.463372 -0.004,1.098292 -0.0382,1.37391 -0.2597,2.106105 -0.45568,1.506057 -1.29167,2.776508 -2.4676,3.749966 -0.70159,0.580789 -2.02023,1.270089 -2.8763,1.503543 -0.7377,0.201174 -2.98826,0.258237 -3.69738,0.09375 z m 3.18256,-2.402048 c 1.50452,-0.435435 2.71634,-1.673158 3.23572,-3.304894 0.49737,-1.562619 0.25978,-3.47154 -0.59693,-4.795909 -1.9629,-3.0343987 -6.45008,-3.0401294 -8.38797,-0.01071 -1.02035,1.595062 -1.12301,3.844254 -0.25385,5.561756 1.13481,2.242455 3.53797,3.263185 6.00303,2.549759 z"
     id="path3770"
     inkscape:connector-curvature="0" />
  <path
     style="fill:#000000;stroke-width:0.09360465"
     d="m 44.633586,22.49224 c -2.951342,-0.538795 -5.128631,-2.527719 -5.896241,-5.386135 -0.272563,-1.014969 -0.295544,-3.163431 -0.04355,-4.071803 0.815713,-2.940469 3.124653,-5.0653913 6.061547,-5.5784532 1.044324,-0.1824384 2.696148,-0.1332638 3.638266,0.1083106 0.81865,0.2099154 2.038707,0.785591 2.768242,1.3061762 l 0.597827,0.4266007 -0.770389,0.9257847 c -0.423715,0.509182 -0.801617,0.928869 -0.839783,0.932637 -0.03817,0.0038 -0.266141,-0.143329 -0.506608,-0.326883 C 48.374729,9.8604637 46.552412,9.4440075 45.005043,9.7685821 43.3105,10.124028 41.823487,11.616162 41.322156,13.464154 c -0.196567,0.724581 -0.196854,2.33432 -5.47e-4,3.06432 0.634536,2.35962 2.435802,3.747853 4.872286,3.755065 1.133682,0.0034 1.986411,-0.196163 2.901745,-0.678938 l 0.655232,-0.345589 0.02578,-1.474274 0.02578,-1.474273 h -1.874471 -1.87447 V 15.234012 14.157558 H 49.189244 52.325 v 3.073389 3.073389 l -0.585029,0.439117 c -0.778511,0.584343 -2.076912,1.218165 -3.112355,1.519311 -0.697017,0.20272 -1.076737,0.25056 -2.199709,0.277139 -0.746497,0.01767 -1.553942,-0.0038 -1.794321,-0.04766 z"
     id="path3782"
     inkscape:connector-curvature="0" />
  <path
     style="fill:#000000;stroke-width:0.09360465"
     d="M 57.473256,15 V 7.6052326 h 1.263663 1.263662 V 15 22.394767 h -1.263662 -1.263663 z"
     id="path3784"
     inkscape:connector-curvature="0" />
  <path
     style="fill:#000000;stroke-width:0.09360465"
     d="M 65.710465,15 V 7.6052326 h 5.475872 5.475872 v 1.1223019 1.1223019 l -4.23561,0.024355 -4.235611,0.024355 v 2.0593026 2.059302 l 3.720785,0.02448 3.720785,0.02448 v 1.121107 1.121108 l -3.720785,0.02448 -3.720785,0.02447 -0.0247,3.01875 -0.0247,3.01875 H 66.926024 65.71046 Z"
     id="path3786"
     inkscape:connector-curvature="0" />
  <path
     style="fill:#000000;stroke-width:0.09360465"
     d="M 84.805814,16.170058 V 9.9453488 H 82.465698 80.125581 V 8.7752907 7.6052326 h 5.990698 5.990698 V 8.7752907 9.9453488 H 89.720058 87.33314 v 6.2247092 6.224709 h -1.263663 -1.263663 z"
     id="path3788"
     inkscape:connector-curvature="0" />
</svg>
