<svg width="161" height="30" viewBox="0 0 161 30" xmlns="http://www.w3.org/2000/svg">
  <g fill="none" fill-rule="evenodd">
    <path d="M46.134 22.65c-4.644 0-7.698-3.308-7.698-7.655-.035-2.045.76-4.017 2.2-5.467 1.443-1.45 3.41-2.255 5.456-2.23 2.09-.1 4.14.623 5.704 2.014l-1.654 1.972c-1.12-1.06-2.615-1.632-4.156-1.59-2.736 0-4.814 2.375-4.814 5.26 0 3.074 2.015 5.322 5.047 5.322 1.283.014 2.538-.38 3.583-1.124v-2.78h-3.796v-2.267h6.32v6.234c-1.72 1.49-3.918 2.31-6.193 2.31zM60.066 7.552v14.844h-2.608V7.552M76.67 9.927h-8.44v4.05h7.486v2.376H68.23v6.043h-2.608V7.552H76.67M87.4 22.396h-2.63V9.97h-4.708V7.55h12.046V9.97H87.4" fill="#124680"></path>
    <path fill="#EE3124" d="M99.063 16.14v6.256h-2.608V7.552h2.608v6.17h7.083v-6.17h2.608v14.844h-2.608V16.14M125.168 9.885h-8.398v3.86h7.443v2.332h-7.443v3.986h8.504v2.333H114.16V7.552h11.008M139.482 22.396l-3.648-5.174h-3.266v5.174h-2.608V7.552h6.616c3.414 0 5.514 1.802 5.514 4.708 0 2.46-1.464 3.944-3.54 4.516l4.006 5.62h-3.074zm-3.118-12.47h-3.796v4.985h3.818c1.865 0 3.053-.975 3.053-2.502 0-1.633-1.146-2.48-3.076-2.48zM152.692 22.65c-2.762.023-5.324-1.44-6.708-3.832-1.383-2.39-1.375-5.342.022-7.726 1.397-2.383 3.967-3.833 6.73-3.795 2.762-.022 5.324 1.44 6.707 3.833 1.384 2.39 1.376 5.342-.02 7.726-1.398 2.383-3.968 3.833-6.73 3.795zm0-12.956c-2.947 0-5.004 2.354-5.004 5.26 0 2.904 2.1 5.3 5.047 5.3 2.948 0 5.005-2.354 5.005-5.26 0-2.904-2.1-5.3-5.048-5.3z"></path>
    <g>
      <path fill="#FFF" d="M3.418 7.975h19.367v17.848H3.418z"></path>
      <path d="M18.13 3.446c.36-.208.486-.666.283-1.03-.117-.168-.296-.284-.5-.32-.2-.035-.41.012-.577.13-.76.406-1.213 1.112-1.785 1.78.9.137 1.818-.063 2.58-.56zM7.907 3.356c.755.633 1.66.716 2.584.71l.07-.113c-.348-.4-.676-.817-1.05-1.188-.242-.23-.516-.427-.813-.58-.325-.192-.743-.103-.96.205-.207.317-.132.74.17.966z"></path>
      <path d="M25.352 5.613c-1.273-.104-2.547-.197-3.82-.295L19.36 5.15c.025-.06.026-.076.034-.08.12-.09.245-.176.365-.267.87-.658 1.335-1.477 1.144-2.616C20.728.897 19.6-.047 18.298.01c-.988.048-1.92.48-2.595 1.202-.784.79-1.5 1.648-2.236 2.487-.384.437-.42.442-.806-.01-.564-.665-1.122-1.336-1.708-1.98C10.282.895 9.366.32 8.342.067 6.36-.35 5.054 1.237 5.2 2.96c.104.785.56 1.48 1.24 1.888.114.08.226.165.366.27-.042.02-.085.037-.13.05-1.865.144-3.73.29-5.594.43C.284 5.655 0 5.932 0 6.675c.004 4.72.006 9.002.008 13.722 0 1.26-.004 2.935 0 4.215H.004v.313c0 .693.462 1.302 1.13 1.487l10.18 2.787 1.657.455c.026.007.058.007.09.013.033-.006.066-.006.098-.013l1.657-.455 10.173-2.787c.67-.185 1.134-.792 1.137-1.487v-.168-.018c.003-6.092.004-12.184.003-18.276.02-.218-.054-.434-.2-.596-.15-.16-.357-.254-.576-.255zm-8.016-3.386c.168-.12.376-.166.578-.13.203.035.382.15.5.32.202.363.076.82-.283 1.03-.762.496-1.68.696-2.58.56.573-.67 1.027-1.375 1.786-1.78zm-9.6.163c.218-.308.636-.397.96-.205.298.153.572.35.814.58.374.37.702.79 1.05 1.188l-.07.113c-.922.006-1.828-.077-2.583-.71-.302-.226-.377-.65-.17-.966zM22.52 8.974l.002 13.727c0 .755-.207 1.024-.928 1.212l-6.026 1.57c-.654.17-.94-.052-.94-.735-.004-1.57-.008-3.14-.01-4.71v-.426l-3.122.667c.012 1.36.007 3.143.005 4.503 0 .638-.29.868-.902.71-2.055-.53-4.11-1.064-6.163-1.6-.51-.078-.87-.538-.825-1.052-.002-4.522-.002-9.045 0-13.568 0-.84.364-1.12 1.19-.976 1.956.336 3.912.667 5.87.994.66.11.832.3.832.96v4.991l3.115-.748v-.377l.01-3.94c.002-.54.176-.775.703-.867 2.07-.358 4.14-.71 6.21-1.053 0 0 .98-.243.98.72z" fill="#EE3124"></path>
    </g>
  </g>
</svg>